<svg xmlns="http://www.w3.org/2000/svg" width="237.959" height="34.976" viewBox="0 0 237.959 34.976">
  <g id="Group_14063" data-name="Group 14063" transform="translate(-190 -95)">
    <path id="Path_2" data-name="Path 2" d="M19.045-59.823v4.257h-8.55a6,6,0,0,0-2.422.5,6.6,6.6,0,0,0-2,1.339A6.214,6.214,0,0,0,4.715-51.75a6.09,6.09,0,0,0-.5,2.459,6,6,0,0,0,.5,2.422,6.433,6.433,0,0,0,1.358,2,6.433,6.433,0,0,0,2,1.358,6,6,0,0,0,2.422.5h8.55v4.22h-8.55a10.146,10.146,0,0,1-4.073-.826,10.66,10.66,0,0,1-3.339-2.257A10.66,10.66,0,0,1,.826-45.219,10.146,10.146,0,0,1,0-49.292a10.277,10.277,0,0,1,.826-4.091,10.6,10.6,0,0,1,2.257-3.358A10.66,10.66,0,0,1,6.422-59a10.146,10.146,0,0,1,4.073-.826ZM53.5-49.292v.037h-.037a9.956,9.956,0,0,1-.844,4.073,10.7,10.7,0,0,1-2.275,3.321,10.82,10.82,0,0,1-3.339,2.238,10.146,10.146,0,0,1-4.073.826,10.146,10.146,0,0,1-4.073-.826,10.82,10.82,0,0,1-3.339-2.238,10.7,10.7,0,0,1-2.275-3.321,9.956,9.956,0,0,1-.844-4.073v-.073a9.956,9.956,0,0,1,.844-4.073,10.7,10.7,0,0,1,2.275-3.321,10.821,10.821,0,0,1,3.339-2.238,10.146,10.146,0,0,1,4.073-.826,10.146,10.146,0,0,1,4.073.826,10.82,10.82,0,0,1,3.339,2.238A10.7,10.7,0,0,1,52.621-53.4a9.956,9.956,0,0,1,.844,4.073H53.5ZM42.933-43.054a6.13,6.13,0,0,0,2.44-.5,6.31,6.31,0,0,0,2-1.339,6.635,6.635,0,0,0,1.358-1.982,5.816,5.816,0,0,0,.514-2.422,5.942,5.942,0,0,0-.514-2.44,6.57,6.57,0,0,0-1.358-2,6.31,6.31,0,0,0-2-1.339,6.13,6.13,0,0,0-2.44-.5,6.13,6.13,0,0,0-2.44.5,6.31,6.31,0,0,0-2,1.339,6.57,6.57,0,0,0-1.358,2,5.942,5.942,0,0,0-.514,2.44,5.816,5.816,0,0,0,.514,2.422,6.635,6.635,0,0,0,1.358,1.982,6.31,6.31,0,0,0,2,1.339A6.13,6.13,0,0,0,42.933-43.054Zm46.309-6.238v.037h-.037a9.957,9.957,0,0,1-.844,4.073,10.7,10.7,0,0,1-2.275,3.321,10.82,10.82,0,0,1-3.339,2.238,10.146,10.146,0,0,1-4.073.826,10.146,10.146,0,0,1-4.073-.826,10.82,10.82,0,0,1-3.339-2.238,10.7,10.7,0,0,1-2.275-3.321,9.956,9.956,0,0,1-.844-4.073v-.073a9.956,9.956,0,0,1,.844-4.073,10.7,10.7,0,0,1,2.275-3.321A10.82,10.82,0,0,1,74.6-58.961a10.146,10.146,0,0,1,4.073-.826,10.146,10.146,0,0,1,4.073.826,10.82,10.82,0,0,1,3.339,2.238A10.7,10.7,0,0,1,88.362-53.4a9.957,9.957,0,0,1,.844,4.073h.037ZM78.674-43.054a6.13,6.13,0,0,0,2.44-.5,6.31,6.31,0,0,0,2-1.339,6.635,6.635,0,0,0,1.358-1.982,5.816,5.816,0,0,0,.514-2.422,5.942,5.942,0,0,0-.514-2.44,6.569,6.569,0,0,0-1.358-2,6.31,6.31,0,0,0-2-1.339,6.13,6.13,0,0,0-2.44-.5,6.13,6.13,0,0,0-2.44.5,6.311,6.311,0,0,0-2,1.339,6.57,6.57,0,0,0-1.358,2,5.942,5.942,0,0,0-.514,2.44,5.816,5.816,0,0,0,.514,2.422,6.635,6.635,0,0,0,1.358,1.982,6.31,6.31,0,0,0,2,1.339A6.13,6.13,0,0,0,78.674-43.054Zm37.612-8.33a6.13,6.13,0,0,1,2.44.5,6.161,6.161,0,0,1,2,1.358,6.6,6.6,0,0,1,1.339,2,6.09,6.09,0,0,1,.5,2.459,6,6,0,0,1-.5,2.422,6.6,6.6,0,0,1-1.339,2,6.161,6.161,0,0,1-2,1.358,6.13,6.13,0,0,1-2.44.5H104.471v-4.257h11.816a2.009,2.009,0,0,0,1.449-.587,1.918,1.918,0,0,0,.605-1.431,1.978,1.978,0,0,0-.605-1.449,1.978,1.978,0,0,0-1.449-.605h-6.422a6.221,6.221,0,0,1-2.477-.5A6.227,6.227,0,0,1,105.37-49a6.6,6.6,0,0,1-1.358-2.037,6.221,6.221,0,0,1-.5-2.477,6.221,6.221,0,0,1,.5-2.477,6.375,6.375,0,0,1,1.358-2.018,6.374,6.374,0,0,1,2.018-1.358,6.221,6.221,0,0,1,2.477-.5H120.69v4.22H109.865a2.05,2.05,0,0,0-1.5.624,2.05,2.05,0,0,0-.624,1.5,2.05,2.05,0,0,0,.624,1.5,2.05,2.05,0,0,0,1.5.624Zm39.961-8.4V-38.8h-4.22v-8.4h-10.6v8.4H137.2v-20.99h4.22v8.33h10.6v-8.33Zm25.356.073a10.146,10.146,0,0,1,4.073.826,10.66,10.66,0,0,1,3.339,2.257,10.66,10.66,0,0,1,2.257,3.339,10.146,10.146,0,0,1,.826,4.073V-38.8h-4.22v-3.89H175.292v3.89h-4.22V-49.218a10.146,10.146,0,0,1,.826-4.073,10.661,10.661,0,0,1,2.257-3.339,10.6,10.6,0,0,1,3.358-2.257A10.277,10.277,0,0,1,181.6-59.713Zm6.275,12.807v-2.312a6.13,6.13,0,0,0-.5-2.44,6.31,6.31,0,0,0-1.339-2,6.31,6.31,0,0,0-2-1.339,6.13,6.13,0,0,0-2.44-.5,6.09,6.09,0,0,0-2.459.5,6.6,6.6,0,0,0-2,1.339,6.161,6.161,0,0,0-1.358,2,6.13,6.13,0,0,0-.5,2.44v2.312Z" transform="translate(235.861 161.762)"/>
    <circle id="Ellipse_3" data-name="Ellipse 3" cx="17.488" cy="17.488" r="17.488" transform="translate(190 95)" fill="#47c3b0"/>
    <path id="Path_5" data-name="Path 5" d="M18.092-287.551H14.429v-9.03a5.274,5.274,0,0,0-.426-2.1,5.43,5.43,0,0,0-1.152-1.721,5.43,5.43,0,0,0-1.721-1.152,5.276,5.276,0,0,0-2.1-.426,5.164,5.164,0,0,0-2.084.426A5.677,5.677,0,0,0,5.225-300.4a5.3,5.3,0,0,0-1.168,1.721,5.274,5.274,0,0,0-.426,2.1v9.03H0v-9.03a8.731,8.731,0,0,1,.71-3.5,9.173,9.173,0,0,1,1.942-2.873A9.173,9.173,0,0,1,5.525-304.9a8.73,8.73,0,0,1,3.5-.71,8.843,8.843,0,0,1,3.52.71,9.124,9.124,0,0,1,2.889,1.942,9.173,9.173,0,0,1,1.942,2.873,8.731,8.731,0,0,1,.71,3.5Z" transform="translate(198.259 408.322)" fill="#fff"/>
  </g>
</svg>
