<svg xmlns="http://www.w3.org/2000/svg" xmlns:xlink="http://www.w3.org/1999/xlink" width="261" height="50" viewBox="0 0 261 50">
  <defs>
    <clipPath id="clip-Artboard_2">
      <rect width="261" height="50"/>
    </clipPath>
  </defs>
  <g id="Artboard_2" data-name="Artboard – 2" clip-path="url(#clip-Artboard_2)">
    <g id="Group_3" data-name="Group 3" transform="translate(-187.934 -85.878)">
      <path id="Path_2" data-name="Path 2" d="M20.558-59.82v4.595H11.329a6.476,6.476,0,0,0-2.614.535,7.121,7.121,0,0,0-2.159,1.446A6.708,6.708,0,0,0,5.09-51.106a6.574,6.574,0,0,0-.535,2.654,6.476,6.476,0,0,0,.535,2.614,6.945,6.945,0,0,0,1.466,2.159,6.945,6.945,0,0,0,2.159,1.466,6.476,6.476,0,0,0,2.614.535h9.229v4.555H11.329a10.952,10.952,0,0,1-4.4-.891,11.507,11.507,0,0,1-3.6-2.436,11.507,11.507,0,0,1-2.436-3.6A10.952,10.952,0,0,1,0-48.452a11.093,11.093,0,0,1,.891-4.417,11.446,11.446,0,0,1,2.436-3.624,11.508,11.508,0,0,1,3.6-2.436,10.952,10.952,0,0,1,4.4-.891ZM57.753-48.452v.04h-.04a10.747,10.747,0,0,1-.911,4.4,11.545,11.545,0,0,1-2.456,3.585,11.68,11.68,0,0,1-3.6,2.416,10.952,10.952,0,0,1-4.4.891,10.952,10.952,0,0,1-4.4-.891,11.68,11.68,0,0,1-3.6-2.416,11.545,11.545,0,0,1-2.456-3.585,10.748,10.748,0,0,1-.911-4.4v-.079a10.748,10.748,0,0,1,.911-4.4,11.545,11.545,0,0,1,2.456-3.585,11.68,11.68,0,0,1,3.6-2.416,10.952,10.952,0,0,1,4.4-.891,10.952,10.952,0,0,1,4.4.891,11.68,11.68,0,0,1,3.6,2.416A11.545,11.545,0,0,1,56.8-52.888a10.747,10.747,0,0,1,.911,4.4h.04ZM46.345-41.718a6.617,6.617,0,0,0,2.634-.535A6.812,6.812,0,0,0,51.138-43.7,7.162,7.162,0,0,0,52.6-45.838a6.278,6.278,0,0,0,.555-2.614,6.414,6.414,0,0,0-.555-2.634,7.092,7.092,0,0,0-1.466-2.159,6.812,6.812,0,0,0-2.159-1.446,6.617,6.617,0,0,0-2.634-.535,6.617,6.617,0,0,0-2.634.535,6.812,6.812,0,0,0-2.159,1.446,7.092,7.092,0,0,0-1.466,2.159,6.414,6.414,0,0,0-.555,2.634,6.278,6.278,0,0,0,.555,2.614A7.162,7.162,0,0,0,41.552-43.7a6.812,6.812,0,0,0,2.159,1.446A6.617,6.617,0,0,0,46.345-41.718Zm49.989-6.734v.04h-.04a10.748,10.748,0,0,1-.911,4.4,11.545,11.545,0,0,1-2.456,3.585,11.68,11.68,0,0,1-3.6,2.416,10.952,10.952,0,0,1-4.4.891,10.952,10.952,0,0,1-4.4-.891,11.68,11.68,0,0,1-3.6-2.416,11.545,11.545,0,0,1-2.456-3.585,10.747,10.747,0,0,1-.911-4.4v-.079a10.747,10.747,0,0,1,.911-4.4,11.545,11.545,0,0,1,2.456-3.585,11.68,11.68,0,0,1,3.6-2.416,10.952,10.952,0,0,1,4.4-.891,10.952,10.952,0,0,1,4.4.891,11.68,11.68,0,0,1,3.6,2.416,11.545,11.545,0,0,1,2.456,3.585,10.748,10.748,0,0,1,.911,4.4h.04ZM84.926-41.718a6.617,6.617,0,0,0,2.634-.535A6.811,6.811,0,0,0,89.719-43.7a7.162,7.162,0,0,0,1.466-2.139,6.278,6.278,0,0,0,.555-2.614,6.414,6.414,0,0,0-.555-2.634,7.092,7.092,0,0,0-1.466-2.159,6.812,6.812,0,0,0-2.159-1.446,6.617,6.617,0,0,0-2.634-.535,6.617,6.617,0,0,0-2.634.535,6.812,6.812,0,0,0-2.159,1.446,7.092,7.092,0,0,0-1.466,2.159,6.414,6.414,0,0,0-.555,2.634,6.278,6.278,0,0,0,.555,2.614A7.162,7.162,0,0,0,80.133-43.7a6.812,6.812,0,0,0,2.159,1.446A6.617,6.617,0,0,0,84.926-41.718Zm40.6-8.992a6.617,6.617,0,0,1,2.634.535,6.651,6.651,0,0,1,2.159,1.466,7.122,7.122,0,0,1,1.446,2.159A6.574,6.574,0,0,1,132.3-43.9a6.477,6.477,0,0,1-.535,2.614,7.122,7.122,0,0,1-1.446,2.159,6.651,6.651,0,0,1-2.159,1.466,6.617,6.617,0,0,1-2.634.535H112.773v-4.595h12.755a2.169,2.169,0,0,0,1.565-.634,2.07,2.07,0,0,0,.654-1.545,2.135,2.135,0,0,0-.654-1.565,2.135,2.135,0,0,0-1.565-.654H118.6a6.715,6.715,0,0,1-2.674-.535,6.722,6.722,0,0,1-2.179-1.485,7.122,7.122,0,0,1-1.466-2.2,6.715,6.715,0,0,1-.535-2.674,6.715,6.715,0,0,1,.535-2.674,6.881,6.881,0,0,1,1.466-2.179,6.881,6.881,0,0,1,2.179-1.466,6.715,6.715,0,0,1,2.674-.535h11.685V-55.3H118.6a2.213,2.213,0,0,0-1.624.673,2.213,2.213,0,0,0-.673,1.624,2.213,2.213,0,0,0,.673,1.624,2.213,2.213,0,0,0,1.624.673Zm43.136-9.071v22.658h-4.555v-9.071H152.661v9.071h-4.555V-59.781h4.555v8.992h11.448v-8.992Zm27.371.079a10.952,10.952,0,0,1,4.4.891,11.507,11.507,0,0,1,3.6,2.436,11.507,11.507,0,0,1,2.436,3.6,10.952,10.952,0,0,1,.891,4.4v11.25h-4.555v-4.2H189.222v4.2h-4.555v-11.25a10.952,10.952,0,0,1,.891-4.4,11.508,11.508,0,0,1,2.436-3.6,11.446,11.446,0,0,1,3.624-2.436A11.093,11.093,0,0,1,196.035-59.7Zm6.773,13.824v-2.5a6.617,6.617,0,0,0-.535-2.634,6.811,6.811,0,0,0-1.446-2.159,6.812,6.812,0,0,0-2.159-1.446,6.617,6.617,0,0,0-2.634-.535,6.574,6.574,0,0,0-2.654.535,7.121,7.121,0,0,0-2.159,1.446,6.65,6.65,0,0,0-1.466,2.159,6.617,6.617,0,0,0-.535,2.634v2.5Z" transform="translate(239.505 162.31)" fill="#fff"/>
      <circle id="Ellipse_3" data-name="Ellipse 3" cx="18.878" cy="18.878" r="18.878" transform="translate(190 95)" fill="rgba(255,255,255,0.17)"/>
      <path id="Path_5" data-name="Path 5" d="M19.529-286.116H15.576v-9.748a5.693,5.693,0,0,0-.46-2.267,5.861,5.861,0,0,0-1.244-1.858,5.862,5.862,0,0,0-1.858-1.244,5.7,5.7,0,0,0-2.267-.46,5.574,5.574,0,0,0-2.249.46,6.128,6.128,0,0,0-1.858,1.244A5.722,5.722,0,0,0,4.38-298.13a5.693,5.693,0,0,0-.46,2.267v9.748H0v-9.748a9.424,9.424,0,0,1,.767-3.783,9.9,9.9,0,0,1,2.1-3.1,9.9,9.9,0,0,1,3.1-2.1,9.424,9.424,0,0,1,3.783-.767,9.546,9.546,0,0,1,3.8.767,9.85,9.85,0,0,1,3.119,2.1,9.9,9.9,0,0,1,2.1,3.1,9.424,9.424,0,0,1,.767,3.783Z" transform="translate(198.915 408.935)" fill="#fff"/>
    </g>
  </g>
</svg>
